<svg xmlns="http://www.w3.org/2000/svg" xmlns:xlink="http://www.w3.org/1999/xlink" width="2000" zoomAndPan="magnify" viewBox="0 0 1500 1499.999933" height="2000" preserveAspectRatio="xMidYMid meet" version="1.0"><defs><clipPath id="9f2d0a3233"><path d="M 450 532 L 1046 532 L 1046 971 L 450 971 Z M 450 532 " clip-rule="nonzero"/></clipPath></defs><g clip-path="url(#9f2d0a3233)"><path fill="#fe892e" d="M 1040.113281 737.242188 L 841.070312 538.199219 C 833.296875 530.425781 820.695312 530.425781 812.921875 538.199219 C 805.148438 545.972656 805.148438 558.574219 812.921875 566.347656 L 977.972656 731.398438 L 468.730469 731.269531 C 457.746094 731.269531 448.824219 740.164062 448.824219 751.171875 C 448.824219 762.15625 457.722656 771.078125 468.730469 771.078125 L 978 771.207031 L 812.921875 936.285156 C 805.148438 944.0625 805.148438 956.660156 812.921875 964.433594 C 816.808594 968.320312 821.894531 970.277344 826.984375 970.277344 C 832.070312 970.277344 837.15625 968.320312 841.042969 964.433594 L 1040.085938 765.390625 C 1047.886719 757.589844 1047.886719 745.015625 1040.113281 737.242188 Z M 1040.113281 737.242188 " fill-opacity="1" fill-rule="nonzero"/></g></svg>