<svg xmlns="http://www.w3.org/2000/svg" xmlns:xlink="http://www.w3.org/1999/xlink" width="2000" zoomAndPan="magnify" viewBox="0 0 1500 1499.999933" height="2000" preserveAspectRatio="xMidYMid meet" version="1.0"><defs><g/></defs><g fill="#973878" fill-opacity="1"><g transform="translate(343.331561, 1838.034431)"><g><path d="M 344.921875 -1324.828125 L 360.609375 -1269.953125 C 321.410156 -1241.203125 293.972656 -1215.066406 278.296875 -1191.546875 C 262.617188 -1168.035156 254.78125 -1140.601562 254.78125 -1109.25 C 254.78125 -1085.726562 260.984375 -1062.859375 273.390625 -1040.640625 C 285.804688 -1018.429688 312.914062 -1004.0625 354.71875 -997.53125 C 354.71875 -951.800781 346.222656 -915.21875 329.234375 -887.78125 C 312.253906 -860.34375 285.472656 -846.625 248.890625 -846.625 C 201.859375 -846.625 171.484375 -860.671875 157.765625 -888.765625 C 144.046875 -916.859375 137.1875 -948.539062 137.1875 -983.8125 C 137.1875 -1050.445312 153.84375 -1114.796875 187.15625 -1176.859375 C 220.476562 -1238.921875 273.066406 -1288.242188 344.921875 -1324.828125 Z M 660.453125 -1324.828125 L 676.125 -1269.953125 C 636.9375 -1241.203125 609.5 -1215.066406 593.8125 -1191.546875 C 578.132812 -1168.035156 570.296875 -1140.601562 570.296875 -1109.25 C 570.296875 -1085.726562 576.5 -1062.859375 588.90625 -1040.640625 C 601.320312 -1018.429688 628.4375 -1004.0625 670.25 -997.53125 C 670.25 -951.800781 661.753906 -915.21875 644.765625 -887.78125 C 627.785156 -860.34375 601.003906 -846.625 564.421875 -846.625 C 517.390625 -846.625 487.015625 -860.671875 473.296875 -888.765625 C 459.578125 -916.859375 452.71875 -948.539062 452.71875 -983.8125 C 452.71875 -1050.445312 469.375 -1114.796875 502.6875 -1176.859375 C 536 -1238.921875 588.585938 -1288.242188 660.453125 -1324.828125 Z M 660.453125 -1324.828125 "/></g></g></g></svg>