<svg xmlns="http://www.w3.org/2000/svg" xmlns:xlink="http://www.w3.org/1999/xlink" width="2000" zoomAndPan="magnify" viewBox="0 0 1500 1499.999933" height="2000" preserveAspectRatio="xMidYMid meet" version="1.0"><defs><clipPath id="74ccaff89d"><path d="M 273.460938 26.828125 L 1226.710938 26.828125 L 1226.710938 1388.078125 L 273.460938 1388.078125 Z M 273.460938 26.828125 " clip-rule="nonzero"/></clipPath></defs><g clip-path="url(#74ccaff89d)"><path fill="#ffffff" d="M 750 26.828125 C 486.882812 26.828125 273.460938 240.246094 273.460938 503.363281 C 273.460938 860.765625 750 1388.359375 750 1388.359375 C 750 1388.359375 1226.535156 860.765625 1226.535156 503.363281 C 1226.535156 240.246094 1013.113281 26.828125 750 26.828125 Z M 750 673.554688 C 656.054688 673.554688 579.808594 597.308594 579.808594 503.363281 C 579.808594 409.417969 656.054688 333.171875 750 333.171875 C 843.945312 333.171875 920.191406 409.417969 920.191406 503.363281 C 920.191406 597.308594 843.945312 673.554688 750 673.554688 Z M 750 673.554688 " fill-opacity="1" fill-rule="nonzero"/></g></svg>