<svg xmlns="http://www.w3.org/2000/svg" xmlns:xlink="http://www.w3.org/1999/xlink" width="2000" zoomAndPan="magnify" viewBox="0 0 1500 1499.999933" height="2000" preserveAspectRatio="xMidYMid meet" version="1.0"><path fill="#fe892e" d="M 390.089844 244.503906 C 451.21875 246.082031 511.039062 179.460938 569.347656 201.4375 C 633.773438 225.820312 647.714844 323.761719 654.035156 382.484375 C 665.367188 487.015625 669.828125 605.421875 770.792969 665.585938 C 818.867188 694.226562 876.421875 696.628906 930.199219 684.472656 C 1007.191406 667.097656 1082.671875 614.488281 1158.769531 665.378906 C 1233.289062 715.242188 1336.722656 919.5 1447.230469 818.8125 C 1449.703125 816.617188 1446.066406 813.042969 1443.660156 815.242188 C 1332.328125 916.890625 1227.726562 691.617188 1142.835938 650.40625 C 1096.683594 627.675781 1047.714844 640.792969 1001.699219 656.796875 C 934.9375 679.941406 866.328125 701.09375 797.164062 673.074219 C 668.113281 620.804688 672.097656 475.269531 656.367188 359.472656 C 647.785156 296.21875 618.042969 178.363281 531.710938 193.199219 C 465.710938 204.460938 414.0625 264.761719 342.703125 227.539062 C 279.925781 195.328125 260.007812 108.03125 285.972656 46.011719 C 287.277344 42.992188 282.332031 41.6875 281.09375 44.640625 C 247.164062 126.164062 292.632812 241.890625 390.089844 244.503906 Z M 390.089844 244.503906 " fill-opacity="1" fill-rule="nonzero"/><path fill="#fe892e" d="M 373.8125 255.558594 C 435.628906 259.816406 503.347656 189.832031 560.144531 224.859375 C 621.960938 262.769531 627.179688 361.464844 633.703125 424.996094 C 644.691406 532.621094 663.167969 653.910156 774.363281 702.675781 C 826.011719 725.339844 883.703125 721.21875 937.617188 709.542969 C 1016.394531 692.027344 1088.714844 660.574219 1160.898438 715.378906 C 1233.910156 771.011719 1337.066406 953.015625 1447.988281 862.015625 C 1450.527344 859.953125 1446.957031 856.382812 1444.417969 858.441406 C 1331.023438 951.507812 1226.695312 747.523438 1145.308594 698.140625 C 1101.972656 671.835938 1055.132812 674.722656 1007.464844 686.121094 C 940.433594 702.261719 873.402344 725.546875 803.964844 707.6875 C 666.601562 672.316406 649.429688 525.203125 636.863281 406.726562 C 629.789062 340.175781 611.175781 202.058594 517.082031 210.160156 C 455.269531 215.585938 411.246094 266.890625 344.625 244.503906 C 268.664062 219.160156 245.65625 118.058594 272.234375 50.339844 C 273.402344 47.320312 268.527344 46.011719 267.289062 48.964844 C 235.351562 130.699219 275.601562 248.828125 373.8125 255.558594 Z M 373.8125 255.558594 " fill-opacity="1" fill-rule="nonzero"/><path fill="#fe892e" d="M 360.285156 267.097656 C 421.617188 272.660156 494.761719 203.292969 548.675781 249.652344 C 604.71875 298.28125 605.132812 392.097656 612.480469 459.542969 C 624.019531 564.488281 648.539062 680.078125 754.308594 728.636719 C 804.308594 751.574219 859.9375 748.828125 913.03125 740.515625 C 987.34375 728.839844 1066.667969 701.09375 1135.761719 745.121094 C 1219.761719 798.757812 1327.453125 994.019531 1448.261719 905.144531 C 1450.871094 903.222656 1448.261719 898.828125 1445.722656 900.820312 C 1327.453125 987.699219 1222.917969 794.296875 1138.304688 740.722656 C 1034.664062 675.203125 908.632812 759.265625 796.753906 737.082031 C 656.644531 709.609375 628.070312 560.710938 615.640625 441.136719 C 608.773438 375.890625 600.53125 234.542969 510.078125 227.882812 C 480.957031 225.753906 453.691406 240.863281 427.316406 250.820312 C 392.082031 264.078125 352.660156 268.335938 318.25 249.789062 C 251.628906 213.800781 234.046875 121.289062 258.429688 54.667969 C 259.527344 51.578125 254.652344 50.273438 253.554688 53.292969 C 223.058594 136.464844 259.941406 258.238281 360.285156 267.097656 Z M 360.285156 267.097656 " fill-opacity="1" fill-rule="nonzero"/><path fill="#fe892e" d="M 346.546875 279.253906 C 409.527344 286.121094 480.0625 218.816406 533.496094 273.003906 C 585.832031 326.027344 582.671875 419.226562 590.710938 487.839844 C 603.484375 595.667969 634.320312 714.488281 745.105469 759.679688 C 869.347656 810.296875 1010.625 710.640625 1128.6875 787.976562 C 1216.1875 845.257812 1323.8125 1030.144531 1449.019531 948.140625 C 1451.695312 946.355469 1449.019531 941.960938 1446.40625 943.746094 C 1324.15625 1023.894531 1218.179688 840.722656 1131.230469 783.582031 C 1028.207031 715.722656 906.367188 782.070312 794.691406 767.234375 C 649.089844 747.933594 608.152344 600.066406 594.417969 475.613281 C 587 408.101562 586.109375 256.863281 492.21875 245.945312 C 464.746094 242.785156 439.0625 255.492188 413.992188 264.078125 C 377.386719 276.644531 340.710938 279.597656 305.269531 260.917969 C 236.589844 224.652344 221.617188 126.4375 244.625 58.996094 C 245.65625 55.902344 240.777344 54.597656 239.75 57.6875 C 210.902344 142.097656 244.144531 267.714844 346.546875 279.253906 Z M 346.546875 279.253906 " fill-opacity="1" fill-rule="nonzero"/><path fill="#fe892e" d="M 336.863281 292.578125 C 402.730469 299.035156 474.226562 232.550781 523.609375 304.53125 C 564.816406 364.488281 560.214844 447.25 569.007812 516.480469 C 582.742188 624.996094 617.839844 743.746094 728.894531 788.527344 C 850.734375 837.632812 987.34375 750.820312 1107.054688 821.765625 C 1204.582031 879.597656 1314.816406 1069.019531 1449.773438 991.410156 C 1452.589844 989.832031 1449.773438 985.433594 1447.164062 987.082031 C 1314.746094 1063.183594 1207.121094 875.203125 1109.664062 817.441406 C 1064.953125 790.929688 1011.726562 785.089844 960.625 786.191406 C 896.410156 787.632812 830.679688 806.792969 766.671875 794.5 C 629.308594 767.648438 586.863281 625.546875 572.578125 504.324219 C 564.472656 435.640625 569.417969 279.941406 474.707031 264.417969 C 447.234375 259.886719 420.859375 272.179688 395.242188 279.804688 C 358.292969 290.382812 321.339844 291.273438 287.6875 269.914062 C 221.753906 228.019531 208.84375 132.550781 230.820312 63.320312 C 231.78125 60.230469 226.90625 58.925781 225.945312 62.015625 C 198.332031 148.898438 229.515625 281.660156 336.863281 292.578125 Z M 336.863281 292.578125 " fill-opacity="1" fill-rule="nonzero"/><path fill="#fe892e" d="M 320.792969 305.011719 C 385.832031 313.9375 458.15625 250.613281 504.71875 324.585938 C 543.664062 386.742188 537.414062 468.816406 546.480469 538.664062 C 560.902344 649.582031 599.292969 772.179688 712.617188 817.027344 C 768.9375 839.488281 827.316406 829.664062 885.832031 823.898438 C 960.558594 816.273438 1040.84375 825.203125 1104.925781 867.164062 C 1202.726562 931.3125 1313.304688 1103.359375 1450.460938 1034.335938 C 1453.414062 1032.824219 1450.871094 1028.496094 1447.917969 1029.941406 C 1313.648438 1097.796875 1203.824219 926.230469 1107.464844 862.769531 C 1061.382812 832.414062 1003.964844 818.195312 949.5 816.136719 C 885.96875 813.664062 822.714844 833.785156 759.390625 824.445312 C 619.007812 803.839844 567.90625 661.257812 551.90625 538.25 C 542.496094 466.960938 553.347656 297.042969 453.210938 281.660156 C 428.070312 277.8125 403.484375 287.359375 379.652344 293.882812 C 345.3125 303.222656 310.972656 304.253906 279.171875 285.023438 C 208.085938 241.617188 195.449219 141.480469 217.015625 67.714844 C 217.078125 67.402344 217.078125 67.089844 217.023438 66.773438 C 216.964844 66.460938 216.855469 66.167969 216.6875 65.894531 C 216.519531 65.625 216.308594 65.390625 216.054688 65.199219 C 215.800781 65.003906 215.519531 64.867188 215.210938 64.78125 C 214.902344 64.691406 214.589844 64.664062 214.273438 64.695312 C 213.953125 64.726562 213.652344 64.816406 213.367188 64.960938 C 213.085938 65.105469 212.835938 65.296875 212.625 65.535156 C 212.410156 65.773438 212.25 66.042969 212.136719 66.34375 C 186.589844 153.707031 212.824219 290.175781 320.792969 305.011719 Z M 320.792969 305.011719 " fill-opacity="1" fill-rule="nonzero"/><path fill="#fe892e" d="M 310.148438 318.816406 C 331.644531 321.492188 352.042969 316.753906 372.851562 311.945312 C 423.8125 299.308594 465.296875 303.292969 490.640625 354.667969 C 521.890625 417.234375 515.023438 493.335938 523.949219 561.257812 C 538.582031 672.042969 578.070312 793.609375 688.238281 842.851562 C 748.8125 869.914062 810.214844 857.960938 873.675781 851.644531 C 882.980469 850.746094 892.304688 850.238281 901.648438 850.113281 C 910.996094 849.988281 920.332031 850.25 929.65625 850.898438 C 938.980469 851.546875 948.261719 852.582031 957.5 854 C 966.738281 855.414062 975.902344 857.210938 984.992188 859.386719 C 994.082031 861.5625 1003.066406 864.109375 1011.945312 867.03125 C 1020.828125 869.949219 1029.570312 873.230469 1038.175781 876.871094 C 1046.785156 880.515625 1055.226562 884.507812 1063.503906 888.851562 C 1071.78125 893.191406 1079.863281 897.867188 1087.753906 902.878906 C 1192.632812 970.257812 1306.09375 1140.929688 1451.007812 1077.125 C 1454.03125 1075.820312 1451.421875 1071.492188 1448.46875 1072.796875 C 1308.566406 1134.609375 1195.996094 969.363281 1095.242188 901.847656 C 1083.4375 894.089844 1071.214844 887.058594 1058.570312 880.761719 C 1045.921875 874.464844 1032.949219 868.941406 1019.640625 864.199219 C 1006.335938 859.453125 992.792969 855.519531 979.015625 852.398438 C 965.238281 849.277344 951.324219 846.988281 937.273438 845.53125 C 874.910156 839.351562 813.648438 861.464844 751.148438 854.804688 C 610.832031 839.898438 550.050781 700.957031 531.367188 577.949219 C 519.96875 503.980469 538.238281 327.332031 440.296875 300.613281 C 415.574219 293.746094 390.089844 302.539062 366.121094 308.238281 C 329.238281 316.960938 293.59375 317.097656 261.246094 294.5 C 192.566406 247.179688 183.15625 146.011719 203.140625 71.90625 C 203.203125 71.59375 203.207031 71.277344 203.148438 70.964844 C 203.09375 70.648438 202.980469 70.355469 202.8125 70.085938 C 202.644531 69.8125 202.433594 69.582031 202.179688 69.386719 C 201.925781 69.195312 201.644531 69.054688 201.335938 68.96875 C 201.03125 68.882812 200.71875 68.855469 200.398438 68.886719 C 200.082031 68.917969 199.78125 69.003906 199.496094 69.148438 C 199.210938 69.296875 198.960938 69.488281 198.75 69.726562 C 198.539062 69.964844 198.375 70.234375 198.265625 70.53125 C 174.296875 159.886719 197.371094 304.941406 310.148438 318.816406 Z M 310.148438 318.816406 " fill-opacity="1" fill-rule="nonzero"/><path fill="#fe892e" d="M 295.585938 332.207031 C 317.703125 335.710938 338.03125 330.492188 359.664062 326.234375 C 383.085938 321.632812 405.886719 316.480469 428.347656 326.917969 C 450.804688 337.359375 465.984375 361.261719 474.980469 384.472656 C 500.394531 450.683594 492.425781 526.164062 502.453125 595.464844 C 519.417969 709.609375 565.570312 830.214844 681.503906 874.652344 C 737.136719 895.941406 790.570312 889.96875 848.058594 881.519531 C 929.101562 870.117188 1001.902344 894.089844 1070.242188 937.90625 C 1181.503906 1009.199219 1298.332031 1177.605469 1450.734375 1119.980469 C 1453.757812 1118.8125 1452.453125 1113.9375 1449.429688 1115.035156 C 1305.679688 1169.429688 1190.707031 1016.753906 1087.753906 943.746094 C 1042.976562 912.015625 986.3125 883.71875 931.640625 874.582031 C 871.410156 864.488281 812.753906 889.28125 752.589844 885.089844 C 607.398438 874.996094 534.734375 747.179688 511.175781 617.234375 C 499.707031 554.046875 502.730469 489.417969 491.191406 426.371094 C 484.320312 386.535156 468.320312 336.464844 426.90625 320.050781 C 402.589844 310.367188 376.90625 316.753906 352.316406 321.972656 C 312.070312 330.558594 276.765625 329.253906 243.183594 303.222656 C 176.835938 251.714844 170.035156 151.507812 188.855469 75.820312 C 189.609375 72.660156 184.734375 71.289062 183.910156 74.449219 C 161.796875 166.6875 181.027344 313.734375 295.585938 332.207031 Z M 295.585938 332.207031 " fill-opacity="1" fill-rule="nonzero"/><path fill="#fe892e" d="M 280.957031 346.699219 C 303.210938 350.132812 324.777344 344.84375 346.617188 341.207031 C 407.605469 331.179688 442.152344 358.582031 459.183594 416.203125 C 479.789062 484.886719 470.722656 559.609375 482.261719 629.804688 C 500.941406 742.714844 551.285156 860.914062 665.570312 904.527344 C 722.851562 926.367188 777.589844 919.433594 836.65625 910.296875 C 881.160156 903.429688 920.515625 903.429688 962.34375 922.109375 C 995.972656 937.480469 1028.023438 955.632812 1058.496094 976.574219 C 1173.125 1054.390625 1294.277344 1214.003906 1452.039062 1163.457031 C 1455.128906 1162.496094 1453.824219 1157.550781 1450.734375 1158.578125 C 1301.421875 1206.65625 1183.222656 1061.050781 1076.214844 982.894531 C 1031.78125 950.476562 976.355469 914.210938 921.476562 903.222656 C 861.039062 891.136719 801.558594 918.265625 741.050781 915.3125 C 595.996094 908.441406 517.699219 781.589844 491.394531 651.917969 C 478.140625 586.464844 481.09375 520.394531 471.960938 454.667969 C 465.984375 411.535156 451.355469 354.1875 405.269531 337.152344 C 383.980469 329.324219 361.382812 333.992188 339.816406 337.566406 C 297.234375 344.433594 260.285156 345.1875 225.945312 314.625 C 162.6875 258.238281 157.878906 157.757812 175.667969 80.699219 C 176.355469 77.539062 171.480469 76.164062 170.792969 79.324219 C 150.121094 170.050781 163.855469 328.5 280.957031 346.699219 Z M 280.957031 346.699219 " fill-opacity="1" fill-rule="nonzero"/><path fill="#fe892e" d="M 258.429688 359.40625 C 279.859375 364.695312 301.21875 361.191406 322.714844 358.167969 C 352.730469 353.980469 382.949219 350.820312 406.988281 373.761719 C 424.15625 390.242188 433.636719 414.558594 439.472656 437.085938 C 457.332031 506.589844 447.921875 581.316406 459.597656 651.851562 C 478.757812 767.097656 532.535156 890.792969 649.019531 935.640625 C 706.023438 957.550781 759.871094 948.347656 818.386719 938.457031 C 863.03125 930.832031 905.0625 928.636719 946.683594 949.171875 C 981.640625 966.410156 1014.882812 991.066406 1046.410156 1013.9375 C 1163.992188 1099.171875 1289.816406 1249.375 1452.863281 1206.246094 C 1453.191406 1206.15625 1453.488281 1206.011719 1453.757812 1205.804688 C 1454.027344 1205.601562 1454.246094 1205.351562 1454.417969 1205.058594 C 1454.585938 1204.765625 1454.695312 1204.449219 1454.738281 1204.117188 C 1454.785156 1203.78125 1454.761719 1203.449219 1454.675781 1203.121094 C 1454.589844 1202.792969 1454.445312 1202.496094 1454.242188 1202.226562 C 1454.035156 1201.957031 1453.785156 1201.738281 1453.496094 1201.566406 C 1453.203125 1201.394531 1452.890625 1201.285156 1452.554688 1201.242188 C 1452.21875 1201.195312 1451.886719 1201.214844 1451.558594 1201.300781 C 1297.4375 1242.507812 1174.085938 1105.144531 1064.195312 1021.011719 C 1019.140625 986.671875 965.089844 941.753906 908.152344 930.144531 C 845.035156 917.578125 782.878906 947.660156 719.691406 945.050781 C 574.292969 939.691406 494.96875 800.820312 468.867188 673.554688 C 455.132812 605.972656 459.390625 538.113281 450.667969 470.257812 C 445.242188 428.222656 431.4375 372.59375 387.480469 354.734375 C 362.757812 344.707031 336.039062 351.300781 310.695312 354.734375 C 269.488281 360.09375 235.148438 351.851562 205.339844 321.011719 C 147.234375 260.710938 145.929688 162.085938 161.863281 85.023438 C 162.480469 81.863281 157.605469 80.492188 156.988281 83.652344 C 138.304688 173.964844 145.585938 331.660156 258.429688 359.40625 Z M 258.429688 359.40625 " fill-opacity="1" fill-rule="nonzero"/><path fill="#fe892e" d="M 251.769531 375.75 C 280.269531 380.558594 308.359375 370.875 336.792969 371.632812 C 400.460938 373.347656 419.554688 439.898438 424.980469 492.511719 C 431.851562 561.191406 427.246094 629.253906 441.257812 697.453125 C 464.816406 812.289062 526.90625 932.824219 646.136719 970.460938 C 705.199219 989.074219 759.253906 975.269531 818.25 964.832031 C 862.617188 957 903.003906 957.550781 942.496094 981.65625 C 976.355469 1002.261719 1007.808594 1029.734375 1038.648438 1054.664062 C 1156.296875 1148.140625 1287.753906 1284.402344 1453.34375 1249.101562 C 1456.574219 1248.414062 1455.199219 1243.539062 1452.039062 1244.226562 C 1288.304688 1279.113281 1158.429688 1143.195312 1042.21875 1051.09375 C 1000.667969 1018.058594 955.40625 972.316406 902.589844 958.648438 C 842.425781 943.125 781.4375 973.070312 721.546875 975.683594 C 574.226562 982.550781 482.742188 846.628906 451.082031 719.019531 C 434.117188 649.722656 435.832031 581.039062 431.507812 510.640625 C 428.691406 466.273438 421.273438 408.925781 382.261719 380.558594 C 358.703125 363.457031 331.027344 366.136719 303.621094 369.160156 C 262.414062 373.691406 228.414062 371.289062 197.167969 340.863281 C 132.46875 277.742188 132.675781 171.976562 148.058594 89.351562 C 148.675781 86.535156 144.144531 84.820312 143.183594 88.046875 C 126.148438 179.390625 129.515625 355.148438 251.769531 375.75 Z M 251.769531 375.75 " fill-opacity="1" fill-rule="nonzero"/><path fill="#fe892e" d="M 236.109375 390.449219 C 263.167969 395.324219 290.230469 387.222656 317.359375 388.59375 C 378.074219 391.617188 397.507812 450.410156 403.277344 501.988281 C 411.519531 574.789062 403.691406 647.179688 418.527344 719.707031 C 442.425781 836.464844 506.09375 958.71875 625.941406 999.308594 C 688.238281 1020.460938 744.003906 1005.832031 806.230469 993.402344 C 851.148438 984.472656 893.320312 983.855469 932.671875 1010.226562 C 968.457031 1034.199219 999.429688 1067.644531 1031.984375 1095.738281 C 1149.363281 1197.246094 1286.722656 1319.570312 1454.375 1292.097656 C 1457.601562 1291.546875 1456.230469 1286.671875 1453 1287.152344 C 1285.007812 1314.625 1147.851562 1189.074219 1030.613281 1087.976562 C 989.402344 1052.398438 947.097656 999.859375 892.082031 985.914062 C 829.171875 970.050781 767.015625 1004.941406 704.375 1006.519531 C 554.445312 1010.226562 461.039062 871.90625 428.554688 741.339844 C 410.765625 669.433594 413.992188 599.308594 410.214844 526.09375 C 407.878906 482.207031 400.738281 424.722656 361.726562 396.90625 C 337.757812 379.871094 309.117188 383.167969 281.371094 385.296875 C 242.632812 388.734375 210.695312 383.511719 182.261719 354.390625 C 116.945312 288.113281 120.449219 178.226562 134.183594 93.402344 C 134.734375 90.246094 129.859375 88.871094 129.308594 92.097656 C 118.113281 159.613281 114.75 232.6875 140.503906 297.25 C 157.195312 339.214844 189.0625 381.863281 236.109375 390.449219 Z M 236.109375 390.449219 " fill-opacity="1" fill-rule="nonzero"/><path fill="#fe892e" d="M 220.519531 405.421875 C 251.285156 411.121094 283.15625 400.132812 313.71875 407.277344 C 369.351562 420.257812 381.09375 487.90625 383.773438 535.710938 C 387.894531 609.40625 381.917969 680.628906 398.195312 753.429688 C 424.84375 872.453125 494.898438 995.597656 618.730469 1032.550781 C 682.328125 1051.574219 737.480469 1034.40625 800.050781 1021.011719 C 850.941406 1010.089844 894.828125 1013.320312 935.695312 1048.484375 C 967.289062 1075.957031 994.484375 1108.238281 1024.980469 1136.738281 C 1141.738281 1245.738281 1285.351562 1354.734375 1454.445312 1334.953125 C 1457.671875 1334.953125 1457.671875 1329.527344 1454.445312 1329.941406 C 1293.730469 1348.691406 1155.269531 1249.652344 1042.976562 1146.5625 C 1015.984375 1121.699219 990.226562 1095.875 964.609375 1069.570312 C 945.859375 1050.269531 925.875 1030.078125 900.804688 1019.089844 C 840.777344 992.851562 777.179688 1025.957031 717.289062 1034.472656 C 561.449219 1057.136719 451.492188 921.082031 411.792969 785.847656 C 390.570312 713.386719 389.40625 641.617188 389.40625 566.617188 C 389.40625 517.371094 387.34375 449.445312 344.417969 415.929688 C 323.8125 399.722656 298.539062 399.378906 273.402344 400.546875 C 230.0625 402.539062 194.554688 399.996094 163.992188 365.039062 C 102.179688 293.953125 107.535156 184.957031 120.449219 97.867188 C 120.929688 94.707031 116.054688 93.335938 115.574219 96.5625 C 105.476562 164.832031 100.464844 238.320312 124.15625 304.390625 C 139.953125 348.484375 171 396.289062 220.519531 405.421875 Z M 220.519531 405.421875 " fill-opacity="1" fill-rule="nonzero"/><path fill="#fe892e" d="M 211.039062 421.425781 C 245.378906 426.234375 283.5 413.25 315.160156 432.621094 C 358.703125 459.335938 363.238281 524.378906 363.238281 569.980469 C 363.238281 646.011719 360.285156 718.402344 379.445312 792.851562 C 410.421875 913.457031 487.960938 1036.121094 616.328125 1066.820312 C 681.574219 1082.414062 736.589844 1060.984375 799.773438 1047.246094 C 850.253906 1036.328125 893.386719 1044.226562 930.75 1081.589844 C 959.183594 1109.886719 983.152344 1142.507812 1011.175781 1171.285156 C 1127.933594 1291.339844 1281.230469 1391.066406 1455.199219 1378.359375 C 1458.425781 1378.359375 1458.496094 1373.070312 1455.199219 1373.277344 C 1286.585938 1385.503906 1137.617188 1291.410156 1022.988281 1176.09375 C 981.300781 1134.199219 944.28125 1067.441406 887.480469 1044.84375 C 828.347656 1021.285156 766.808594 1055.421875 708.910156 1065.449219 C 549.363281 1092.027344 432.605469 951.917969 390.574219 813.800781 C 367.289062 737.082031 367.082031 661.601562 368.183594 582.480469 C 368.867188 533.925781 367.152344 468.265625 326.082031 434.269531 C 303.003906 415.242188 274.226562 416.34375 246 417.167969 C 198.953125 418.402344 163.992188 404.804688 137.621094 364.28125 C 87.894531 287.769531 95.519531 188.046875 106.78125 101.714844 C 107.195312 98.484375 102.113281 98.484375 101.699219 101.714844 C 91.878906 176.988281 85.421875 258.582031 114.609375 330.628906 C 131.851562 373.210938 162.621094 414.761719 211.039062 421.425781 Z M 211.039062 421.425781 " fill-opacity="1" fill-rule="nonzero"/><path fill="#fe892e" d="M 1455.953125 1415.996094 C 1308.976562 1420.804688 1170.171875 1359.816406 1062 1262.425781 C 1033.695312 1236.839844 1007.527344 1209.230469 983.496094 1179.597656 C 960.96875 1152.125 941.53125 1119.980469 914.816406 1095.667969 C 866.738281 1051.230469 809.183594 1063.867188 751.628906 1081.175781 C 674.773438 1104.390625 602.796875 1105.558594 531.4375 1064.074219 C 462.757812 1024.035156 414.679688 956.65625 384.597656 884.0625 C 377.003906 864.96875 370.464844 845.523438 364.980469 825.71875 C 359.496094 805.917969 355.101562 785.878906 351.792969 765.597656 C 348.484375 745.320312 346.28125 724.921875 345.1875 704.402344 C 344.09375 683.886719 344.109375 663.367188 345.242188 642.851562 C 347.648438 585.09375 357.332031 507.34375 314.816406 459.816406 C 296 438.800781 270.792969 433.992188 243.730469 433.304688 C 197.304688 432.140625 159.941406 429.804688 129.925781 389.488281 C 70.65625 309.613281 82.332031 198.554688 92.976562 106.039062 C 93.320312 102.8125 88.238281 102.8125 87.894531 106.039062 C 76.289062 209.0625 60.078125 433.167969 214.335938 438.046875 C 260.488281 439.558594 301.972656 436.945312 325.601562 485.710938 C 346.203125 527.949219 343.25 578.019531 341.054688 623.074219 C 337.34375 701.917969 342.769531 778.292969 368.042969 853.5 C 409.253906 976.09375 505.40625 1095.738281 643.730469 1103.703125 C 718.59375 1108.03125 794.828125 1050.820312 868.042969 1072.867188 C 912.273438 1086.601562 938.511719 1129.460938 964.953125 1163.867188 C 988.492188 1194.625 1014.179688 1223.472656 1042.011719 1250.40625 C 1153.207031 1357.34375 1299.980469 1425.816406 1455.953125 1420.667969 C 1459.183594 1420.941406 1459.25 1415.859375 1455.953125 1415.996094 Z M 1455.953125 1415.996094 " fill-opacity="1" fill-rule="nonzero"/></svg>