<svg xmlns="http://www.w3.org/2000/svg" xmlns:xlink="http://www.w3.org/1999/xlink" width="2000" zoomAndPan="magnify" viewBox="0 0 1500 1499.999933" height="2000" preserveAspectRatio="xMidYMid meet" version="1.0"><path fill="#fea4c6" d="M 1350 750 C 1350 759.820312 1349.757812 769.632812 1349.277344 779.441406 C 1348.796875 789.25 1348.074219 799.039062 1347.109375 808.808594 C 1346.148438 818.582031 1344.945312 828.324219 1343.507812 838.039062 C 1342.066406 847.75 1340.386719 857.421875 1338.472656 867.054688 C 1336.554688 876.683594 1334.40625 886.261719 1332.019531 895.789062 C 1329.632812 905.3125 1327.015625 914.773438 1324.164062 924.171875 C 1321.3125 933.566406 1318.234375 942.886719 1314.925781 952.132812 C 1311.617188 961.378906 1308.085938 970.539062 1304.328125 979.609375 C 1300.570312 988.683594 1296.589844 997.65625 1292.394531 1006.53125 C 1288.195312 1015.410156 1283.78125 1024.179688 1279.152344 1032.839844 C 1274.523438 1041.496094 1269.683594 1050.039062 1264.636719 1058.460938 C 1259.589844 1066.882812 1254.335938 1075.175781 1248.882812 1083.34375 C 1243.425781 1091.507812 1237.773438 1099.53125 1231.925781 1107.417969 C 1226.074219 1115.304688 1220.035156 1123.046875 1213.804688 1130.636719 C 1207.578125 1138.226562 1201.164062 1145.660156 1194.570312 1152.933594 C 1187.976562 1160.210938 1181.207031 1167.320312 1174.265625 1174.265625 C 1167.320312 1181.207031 1160.210938 1187.976562 1152.933594 1194.570312 C 1145.660156 1201.164062 1138.226562 1207.578125 1130.636719 1213.804688 C 1123.046875 1220.035156 1115.308594 1226.074219 1107.417969 1231.925781 C 1099.53125 1237.773438 1091.507812 1243.425781 1083.34375 1248.882812 C 1075.175781 1254.335938 1066.882812 1259.589844 1058.460938 1264.636719 C 1050.039062 1269.683594 1041.496094 1274.523438 1032.839844 1279.152344 C 1024.179688 1283.78125 1015.410156 1288.195312 1006.53125 1292.394531 C 997.65625 1296.589844 988.683594 1300.570312 979.609375 1304.328125 C 970.539062 1308.085938 961.378906 1311.617188 952.132812 1314.925781 C 942.886719 1318.234375 933.566406 1321.3125 924.171875 1324.164062 C 914.773438 1327.015625 905.3125 1329.632812 895.789062 1332.019531 C 886.261719 1334.40625 876.683594 1336.554688 867.054688 1338.472656 C 857.421875 1340.386719 847.75 1342.066406 838.039062 1343.503906 C 828.324219 1344.945312 818.582031 1346.148438 808.808594 1347.109375 C 799.039062 1348.074219 789.25 1348.796875 779.441406 1349.277344 C 769.632812 1349.757812 759.820312 1350 750 1350 C 740.179688 1350 730.367188 1349.757812 720.558594 1349.277344 C 710.75 1348.796875 700.960938 1348.074219 691.191406 1347.109375 C 681.417969 1346.148438 671.675781 1344.945312 661.960938 1343.503906 C 652.25 1342.066406 642.578125 1340.386719 632.945312 1338.472656 C 623.316406 1336.554688 613.738281 1334.40625 604.210938 1332.019531 C 594.6875 1329.632812 585.226562 1327.015625 575.828125 1324.164062 C 566.433594 1321.3125 557.113281 1318.234375 547.867188 1314.925781 C 538.621094 1311.617188 529.460938 1308.085938 520.390625 1304.328125 C 511.316406 1300.570312 502.34375 1296.589844 493.46875 1292.394531 C 484.589844 1288.195312 475.820312 1283.78125 467.160156 1279.152344 C 458.503906 1274.523438 449.960938 1269.683594 441.539062 1264.636719 C 433.117188 1259.589844 424.824219 1254.335938 416.65625 1248.882812 C 408.492188 1243.425781 400.46875 1237.773438 392.582031 1231.925781 C 384.691406 1226.074219 376.953125 1220.035156 369.363281 1213.804688 C 361.773438 1207.578125 354.339844 1201.164062 347.066406 1194.570312 C 339.789062 1187.976562 332.679688 1181.207031 325.734375 1174.265625 C 318.792969 1167.320312 312.023438 1160.210938 305.429688 1152.933594 C 298.835938 1145.660156 292.421875 1138.226562 286.195312 1130.636719 C 279.964844 1123.046875 273.925781 1115.304688 268.074219 1107.417969 C 262.226562 1099.53125 256.574219 1091.507812 251.117188 1083.34375 C 245.664062 1075.175781 240.410156 1066.882812 235.363281 1058.460938 C 230.316406 1050.039062 225.476562 1041.496094 220.847656 1032.839844 C 216.21875 1024.179688 211.804688 1015.410156 207.605469 1006.53125 C 203.40625 997.65625 199.429688 988.683594 195.671875 979.609375 C 191.914062 970.539062 188.382812 961.378906 185.074219 952.132812 C 181.765625 942.886719 178.6875 933.566406 175.835938 924.171875 C 172.984375 914.773438 170.367188 905.3125 167.980469 895.789062 C 165.59375 886.261719 163.445312 876.683594 161.527344 867.054688 C 159.613281 857.421875 157.933594 847.75 156.492188 838.039062 C 155.054688 828.324219 153.851562 818.582031 152.890625 808.808594 C 151.925781 799.039062 151.203125 789.25 150.722656 779.441406 C 150.242188 769.632812 150 759.820312 150 750 C 150 740.179688 150.242188 730.367188 150.722656 720.558594 C 151.203125 710.75 151.925781 700.960938 152.890625 691.191406 C 153.851562 681.417969 155.054688 671.675781 156.492188 661.960938 C 157.933594 652.25 159.613281 642.578125 161.527344 632.945312 C 163.445312 623.316406 165.59375 613.738281 167.980469 604.210938 C 170.367188 594.6875 172.984375 585.226562 175.835938 575.828125 C 178.6875 566.433594 181.765625 557.113281 185.074219 547.867188 C 188.382812 538.621094 191.914062 529.460938 195.671875 520.390625 C 199.429688 511.316406 203.40625 502.34375 207.605469 493.46875 C 211.804688 484.589844 216.21875 475.820312 220.847656 467.160156 C 225.476562 458.5 230.316406 449.960938 235.363281 441.539062 C 240.410156 433.117188 245.664062 424.824219 251.117188 416.65625 C 256.574219 408.492188 262.226562 400.46875 268.074219 392.582031 C 273.925781 384.691406 279.964844 376.953125 286.195312 369.363281 C 292.421875 361.773438 298.835938 354.339844 305.429688 347.066406 C 312.023438 339.789062 318.792969 332.679688 325.734375 325.734375 C 332.679688 318.792969 339.789062 312.023438 347.066406 305.429688 C 354.339844 298.835938 361.773438 292.421875 369.363281 286.195312 C 376.953125 279.964844 384.691406 273.925781 392.582031 268.074219 C 400.46875 262.226562 408.492188 256.574219 416.65625 251.117188 C 424.824219 245.664062 433.117188 240.410156 441.539062 235.363281 C 449.960938 230.316406 458.503906 225.476562 467.160156 220.847656 C 475.820312 216.21875 484.589844 211.804688 493.46875 207.605469 C 502.34375 203.40625 511.316406 199.429688 520.390625 195.671875 C 529.460938 191.914062 538.621094 188.382812 547.867188 185.074219 C 557.113281 181.765625 566.433594 178.6875 575.828125 175.835938 C 585.226562 172.984375 594.6875 170.367188 604.210938 167.980469 C 613.738281 165.59375 623.316406 163.445312 632.945312 161.527344 C 642.578125 159.613281 652.25 157.933594 661.960938 156.492188 C 671.675781 155.054688 681.417969 153.851562 691.191406 152.890625 C 700.960938 151.925781 710.75 151.203125 720.558594 150.722656 C 730.367188 150.242188 740.179688 150 750 150 C 759.820312 150 769.632812 150.242188 779.441406 150.722656 C 789.25 151.203125 799.039062 151.925781 808.808594 152.890625 C 818.582031 153.851562 828.324219 155.054688 838.039062 156.492188 C 847.75 157.933594 857.421875 159.613281 867.054688 161.527344 C 876.683594 163.445312 886.261719 165.59375 895.789062 167.980469 C 905.3125 170.367188 914.773438 172.984375 924.171875 175.835938 C 933.566406 178.6875 942.886719 181.765625 952.132812 185.074219 C 961.378906 188.382812 970.539062 191.914062 979.609375 195.671875 C 988.683594 199.429688 997.65625 203.40625 1006.53125 207.605469 C 1015.410156 211.804688 1024.179688 216.21875 1032.839844 220.847656 C 1041.496094 225.476562 1050.039062 230.316406 1058.460938 235.363281 C 1066.882812 240.410156 1075.175781 245.664062 1083.34375 251.117188 C 1091.507812 256.574219 1099.53125 262.226562 1107.417969 268.074219 C 1115.304688 273.925781 1123.046875 279.964844 1130.636719 286.195312 C 1138.226562 292.421875 1145.660156 298.835938 1152.933594 305.429688 C 1160.210938 312.023438 1167.320312 318.792969 1174.265625 325.734375 C 1181.207031 332.679688 1187.976562 339.789062 1194.570312 347.066406 C 1201.164062 354.339844 1207.578125 361.773438 1213.804688 369.363281 C 1220.035156 376.953125 1226.074219 384.691406 1231.925781 392.582031 C 1237.773438 400.46875 1243.425781 408.492188 1248.882812 416.65625 C 1254.335938 424.824219 1259.589844 433.117188 1264.636719 441.539062 C 1269.683594 449.960938 1274.523438 458.5 1279.152344 467.160156 C 1283.78125 475.820312 1288.195312 484.589844 1292.394531 493.46875 C 1296.59375 502.34375 1300.570312 511.316406 1304.328125 520.390625 C 1308.085938 529.460938 1311.617188 538.621094 1314.925781 547.867188 C 1318.234375 557.113281 1321.3125 566.433594 1324.164062 575.828125 C 1327.015625 585.226562 1329.632812 594.6875 1332.019531 604.210938 C 1334.40625 613.738281 1336.554688 623.316406 1338.472656 632.945312 C 1340.386719 642.578125 1342.066406 652.25 1343.503906 661.960938 C 1344.945312 671.675781 1346.148438 681.417969 1347.109375 691.191406 C 1348.074219 700.960938 1348.796875 710.75 1349.277344 720.558594 C 1349.757812 730.367188 1350 740.179688 1350 750 Z M 1350 750 " fill-opacity="1" fill-rule="nonzero"/><path fill="#ffffff" d="M 1173.269531 453.53125 C 1142.15625 422.417969 1091.4375 422.417969 1060.328125 453.53125 L 636.273438 877.582031 L 439.671875 680.980469 C 408.5625 649.871094 357.84375 649.871094 326.730469 680.980469 C 295.621094 712.089844 295.621094 762.808594 326.730469 793.921875 L 576.929688 1044.117188 C 577.710938 1045.164062 578.757812 1045.949219 579.804688 1046.992188 C 595.488281 1062.679688 615.882812 1070.523438 636.273438 1070.261719 C 656.667969 1070.261719 677.320312 1062.417969 692.746094 1046.992188 C 693.789062 1045.949219 694.574219 1045.164062 695.621094 1044.117188 L 1173.269531 566.46875 C 1204.378906 535.359375 1204.378906 484.640625 1173.269531 453.53125 Z M 1173.269531 453.53125 " fill-opacity="1" fill-rule="nonzero"/></svg>