<svg xmlns="http://www.w3.org/2000/svg" xmlns:xlink="http://www.w3.org/1999/xlink" width="2000" zoomAndPan="magnify" viewBox="0 0 1500 1499.999933" height="2000" preserveAspectRatio="xMidYMid meet" version="1.0"><defs><clipPath id="f1a4c9aac0"><path d="M 222 191.136719 L 1312.898438 191.136719 L 1312.898438 657 L 222 657 Z M 222 191.136719 " clip-rule="nonzero"/></clipPath><clipPath id="1be0cea85f"><path d="M 187.152344 843 L 1277 843 L 1277 1308.636719 L 187.152344 1308.636719 Z M 187.152344 843 " clip-rule="nonzero"/></clipPath></defs><path fill="#fe892e" d="M 205.207031 766.664062 C 243.464844 660.636719 287.667969 530.652344 336.378906 530.191406 C 336.484375 530.191406 336.566406 530.191406 336.671875 530.191406 C 386.132812 530.191406 422.085938 660.863281 453.121094 765.222656 C 453.175781 765.394531 453.222656 765.566406 453.265625 765.742188 C 480.136719 872.96875 503.363281 954.164062 529.59375 954.792969 C 529.679688 954.792969 529.757812 954.796875 529.84375 954.796875 C 557.863281 954.796875 606.714844 871.238281 652.949219 761.832031 C 662.601562 739 671.855469 715.804688 680.824219 693.332031 C 689.117188 672.550781 697.164062 652.390625 704.949219 633.964844 C 724.738281 587.136719 747.449219 537.40625 775.609375 535.996094 C 776.042969 535.976562 776.480469 535.964844 776.910156 535.964844 C 821.03125 535.964844 849.871094 663.210938 874.59375 761.769531 L 874.371094 760.996094 L 874.539062 761.511719 L 874.535156 761.507812 C 910.683594 873.910156 941.527344 960.839844 965.113281 960.839844 C 965.125 960.839844 965.152344 960.839844 965.164062 960.839844 L 965.167969 960.839844 C 989.375 960.613281 1023.886719 871.566406 1064.230469 758.609375 L 1063.902344 759.675781 C 1091.164062 654.203125 1122.667969 520.640625 1168.394531 520.210938 L 1168.402344 520.210938 C 1168.5 520.210938 1168.539062 520.210938 1168.648438 520.210938 C 1213.726562 520.210938 1253.121094 651.75 1286.980469 757.109375 L 1290.761719 768.875 L 1267.230469 776.4375 L 1263.449219 764.671875 C 1223.933594 641.707031 1189.953125 544.925781 1168.648438 544.925781 C 1168.609375 544.925781 1168.671875 544.925781 1168.625 544.925781 L 1168.628906 544.925781 C 1147.910156 545.121094 1119.992188 641.445312 1087.832031 765.859375 C 1087.738281 766.21875 1087.632812 766.574219 1087.507812 766.925781 C 1052.808594 864.0625 1012.277344 985.113281 965.398438 985.554688 L 965.402344 985.554688 C 965.289062 985.554688 965.226562 985.554688 965.113281 985.554688 C 917.851562 985.554688 881.777344 864.753906 851.007812 769.074219 L 850.839844 768.554688 C 850.757812 768.304688 850.683594 768.042969 850.621094 767.78125 C 821.046875 649.886719 795.585938 560.679688 776.910156 560.679688 C 776.890625 560.679688 776.863281 560.679688 776.847656 560.683594 C 768.453125 561.101562 751.71875 586.789062 727.71875 643.585938 C 720.046875 661.738281 712.09375 681.660156 703.78125 702.492188 C 694.828125 724.925781 685.480469 748.355469 675.71875 771.453125 C 634.015625 870.132812 578.789062 979.511719 529.84375 979.511719 C 529.554688 979.511719 529.289062 979.507812 529 979.5 C 478.160156 978.28125 451.90625 861.996094 429.289062 771.75 L 429.433594 772.269531 C 393.199219 650.429688 361.882812 554.90625 336.671875 554.90625 C 336.644531 554.90625 336.640625 554.90625 336.613281 554.90625 C 310.507812 555.152344 272.453125 653.125 228.457031 775.054688 L 224.261719 786.679688 L 201.011719 778.289062 Z M 205.207031 766.664062 " fill-opacity="1" fill-rule="nonzero"/><path fill="#fe892e" d="M 203.214844 938.132812 C 241.472656 832.105469 285.675781 702.117188 334.386719 701.660156 C 334.488281 701.660156 334.574219 701.660156 334.675781 701.660156 C 384.140625 701.660156 420.09375 832.332031 451.128906 936.691406 C 451.179688 936.863281 451.226562 937.035156 451.273438 937.207031 C 478.140625 1044.4375 501.371094 1125.632812 527.601562 1126.261719 C 527.6875 1126.261719 527.765625 1126.261719 527.851562 1126.261719 C 555.871094 1126.261719 604.722656 1042.707031 650.957031 933.300781 C 660.605469 910.46875 669.863281 887.273438 678.832031 864.800781 C 687.125 844.019531 695.171875 823.859375 702.957031 805.429688 C 722.746094 758.605469 745.457031 708.875 773.617188 707.464844 C 774.046875 707.441406 774.488281 707.433594 774.917969 707.433594 C 819.035156 707.433594 847.875 834.679688 872.601562 933.238281 L 872.378906 932.464844 L 872.542969 932.980469 L 872.542969 932.976562 C 908.691406 1045.375 939.535156 1132.308594 963.121094 1132.308594 C 963.132812 1132.308594 963.160156 1132.308594 963.171875 1132.308594 L 963.175781 1132.308594 C 987.382812 1132.078125 1021.890625 1043.035156 1062.238281 930.078125 L 1061.910156 931.144531 C 1089.171875 825.671875 1120.675781 692.109375 1166.402344 691.679688 L 1166.40625 691.679688 C 1166.507812 691.679688 1166.546875 691.679688 1166.65625 691.679688 C 1211.730469 691.679688 1251.128906 823.21875 1284.988281 928.578125 L 1288.769531 940.34375 L 1265.238281 947.90625 L 1261.457031 936.140625 C 1221.941406 813.175781 1187.957031 716.394531 1166.65625 716.394531 C 1166.617188 716.394531 1166.679688 716.394531 1166.632812 716.394531 L 1166.636719 716.394531 C 1145.917969 716.589844 1117.996094 812.914062 1085.839844 937.328125 C 1085.746094 937.6875 1085.636719 938.042969 1085.511719 938.390625 C 1050.816406 1035.53125 1010.285156 1156.582031 963.40625 1157.023438 L 963.410156 1157.023438 C 963.296875 1157.023438 963.234375 1157.023438 963.121094 1157.023438 C 915.859375 1157.023438 879.78125 1036.21875 849.015625 940.542969 L 849.011719 940.539062 L 848.847656 940.023438 C 848.765625 939.769531 848.691406 939.511719 848.625 939.25 C 819.050781 821.355469 793.59375 732.148438 774.917969 732.148438 C 774.898438 732.148438 774.871094 732.148438 774.851562 732.148438 C 766.460938 732.570312 749.726562 758.253906 725.722656 815.050781 C 718.050781 833.207031 710.101562 853.128906 701.789062 873.960938 C 692.835938 896.394531 683.488281 919.820312 673.722656 942.921875 C 632.023438 1041.601562 576.796875 1150.980469 527.851562 1150.980469 C 527.5625 1150.980469 527.296875 1150.976562 527.007812 1150.96875 C 476.167969 1149.75 449.910156 1033.464844 427.296875 943.214844 L 427.4375 943.734375 C 391.207031 821.898438 359.890625 726.375 334.675781 726.375 C 334.652344 726.375 334.644531 726.375 334.621094 726.375 C 308.515625 726.621094 270.460938 824.589844 226.460938 946.523438 L 222.269531 958.144531 L 199.019531 949.757812 Z M 203.214844 938.132812 " fill-opacity="1" fill-rule="nonzero"/><path fill="#fe892e" d="M 217.164062 607.160156 C 255.425781 501.132812 299.628906 371.144531 348.339844 370.6875 C 348.441406 370.6875 348.527344 370.683594 348.628906 370.683594 C 398.09375 370.683594 434.046875 501.359375 465.082031 605.71875 C 465.132812 605.886719 465.179688 606.0625 465.222656 606.234375 C 492.09375 713.464844 515.324219 794.660156 541.550781 795.289062 C 541.640625 795.289062 541.71875 795.289062 541.804688 795.289062 C 569.824219 795.289062 618.675781 711.734375 664.910156 602.328125 C 674.558594 579.492188 683.816406 556.300781 692.785156 533.828125 C 701.078125 513.046875 709.121094 492.886719 716.910156 474.457031 C 736.699219 427.628906 759.410156 377.902344 787.570312 376.492188 C 788 376.46875 788.441406 376.457031 788.871094 376.457031 C 832.988281 376.457031 861.828125 503.707031 886.550781 602.265625 L 886.332031 601.492188 L 886.496094 602.007812 L 886.496094 602.003906 C 922.644531 714.402344 953.488281 801.335938 977.070312 801.335938 C 977.085938 801.335938 977.109375 801.335938 977.125 801.335938 C 1001.335938 801.105469 1035.84375 712.0625 1076.1875 599.105469 L 1075.863281 600.167969 C 1103.125 494.699219 1134.625 361.136719 1180.355469 360.707031 L 1180.359375 360.707031 C 1180.460938 360.703125 1180.5 360.703125 1180.609375 360.703125 C 1225.683594 360.703125 1265.082031 492.246094 1298.941406 597.605469 L 1302.722656 609.371094 L 1279.191406 616.929688 L 1275.410156 605.164062 C 1235.890625 482.203125 1201.910156 385.421875 1180.609375 385.421875 C 1180.570312 385.421875 1180.632812 385.421875 1180.582031 385.421875 L 1180.589844 385.421875 C 1159.867188 385.617188 1131.949219 481.941406 1099.792969 606.355469 C 1099.699219 606.714844 1099.589844 607.070312 1099.464844 607.417969 C 1064.769531 704.558594 1024.238281 825.609375 977.359375 826.050781 L 977.363281 826.050781 C 977.246094 826.050781 977.1875 826.050781 977.070312 826.050781 C 929.8125 826.050781 893.734375 705.246094 862.964844 609.570312 L 862.964844 609.566406 L 862.800781 609.050781 C 862.71875 608.796875 862.644531 608.539062 862.578125 608.277344 C 833.003906 490.382812 807.546875 401.175781 788.871094 401.175781 C 788.851562 401.175781 788.824219 401.175781 788.804688 401.175781 C 780.414062 401.597656 763.679688 427.28125 739.675781 484.078125 C 732.003906 502.234375 724.054688 522.15625 715.738281 542.988281 C 706.785156 565.421875 697.4375 588.847656 687.675781 611.949219 C 645.972656 710.628906 590.746094 820.007812 541.804688 820.007812 C 541.515625 820.007812 541.246094 820.003906 540.960938 819.996094 C 490.121094 818.777344 463.863281 702.492188 441.25 612.242188 L 441.390625 612.761719 C 405.15625 490.925781 373.839844 395.402344 348.628906 395.402344 C 348.605469 395.402344 348.597656 395.402344 348.570312 395.402344 C 322.46875 395.648438 284.414062 493.617188 240.414062 615.546875 L 236.21875 627.171875 L 212.972656 618.785156 Z M 217.164062 607.160156 " fill-opacity="1" fill-rule="nonzero"/><g clip-path="url(#f1a4c9aac0)"><path fill="#fe892e" d="M 227.132812 437.683594 C 265.390625 331.65625 309.59375 201.671875 358.304688 201.210938 C 358.40625 201.210938 358.492188 201.210938 358.59375 201.210938 C 408.058594 201.210938 444.011719 331.882812 475.046875 436.242188 C 475.097656 436.414062 475.148438 436.585938 475.191406 436.761719 C 502.058594 543.992188 525.289062 625.183594 551.519531 625.8125 C 551.605469 625.816406 551.683594 625.816406 551.769531 625.816406 C 579.789062 625.816406 628.640625 542.257812 674.875 432.855469 C 684.527344 410.019531 693.78125 386.824219 702.75 364.351562 C 711.042969 343.574219 719.089844 323.410156 726.875 304.984375 C 746.664062 258.15625 769.375 208.425781 797.535156 207.015625 C 797.96875 206.996094 798.40625 206.984375 798.835938 206.984375 C 842.957031 206.984375 871.792969 334.230469 896.519531 432.789062 L 896.296875 432.015625 L 896.460938 432.53125 C 932.609375 544.929688 963.453125 631.859375 987.039062 631.859375 C 987.050781 631.859375 987.078125 631.859375 987.089844 631.859375 L 987.09375 631.859375 C 1011.300781 631.632812 1045.808594 542.585938 1086.15625 429.632812 L 1085.828125 430.695312 C 1113.089844 325.222656 1144.59375 191.664062 1190.320312 191.230469 L 1190.324219 191.230469 C 1190.425781 191.230469 1190.464844 191.230469 1190.574219 191.230469 C 1235.648438 191.230469 1275.046875 322.769531 1308.90625 428.128906 L 1312.6875 439.894531 L 1289.15625 447.457031 L 1285.375 435.691406 C 1245.859375 312.730469 1211.878906 215.945312 1190.574219 215.945312 C 1190.535156 215.945312 1190.597656 215.945312 1190.550781 215.945312 L 1190.554688 215.945312 C 1169.835938 216.140625 1141.917969 312.464844 1109.757812 436.882812 C 1109.664062 437.242188 1109.554688 437.59375 1109.429688 437.945312 C 1074.734375 535.085938 1034.203125 656.132812 987.324219 656.574219 L 987.328125 656.574219 C 987.214844 656.578125 987.152344 656.578125 987.039062 656.578125 C 939.777344 656.578125 903.703125 535.773438 872.933594 440.097656 L 872.929688 440.09375 L 872.765625 439.578125 C 872.683594 439.324219 872.609375 439.066406 872.542969 438.804688 C 842.972656 320.910156 817.511719 231.699219 798.835938 231.699219 C 798.816406 231.699219 798.789062 231.703125 798.773438 231.703125 L 798.769531 231.703125 C 790.378906 232.121094 773.644531 257.808594 749.644531 314.605469 C 741.972656 332.757812 734.019531 352.679688 725.707031 373.515625 C 716.753906 395.949219 707.40625 419.375 697.640625 442.476562 C 655.941406 541.152344 600.714844 650.53125 551.769531 650.53125 C 551.480469 650.53125 551.214844 650.527344 550.925781 650.523438 C 500.085938 649.304688 473.832031 533.019531 451.214844 442.769531 L 451.355469 443.289062 C 415.125 321.449219 383.808594 225.925781 358.59375 225.925781 C 358.570312 225.925781 358.5625 225.925781 358.539062 225.929688 C 332.433594 226.171875 294.378906 324.144531 250.382812 446.074219 L 246.1875 457.699219 L 222.9375 449.308594 Z M 227.132812 437.683594 " fill-opacity="1" fill-rule="nonzero"/></g><g clip-path="url(#1be0cea85f)"><path fill="#fe892e" d="M 191.253906 1089.664062 C 229.515625 983.636719 273.714844 853.648438 322.425781 853.191406 C 322.53125 853.1875 322.613281 853.1875 322.71875 853.1875 C 372.183594 853.1875 408.136719 983.863281 439.171875 1088.21875 C 439.222656 1088.390625 439.269531 1088.566406 439.3125 1088.738281 C 466.183594 1195.96875 489.410156 1277.160156 515.640625 1277.789062 C 515.726562 1277.792969 515.804688 1277.792969 515.890625 1277.792969 C 543.910156 1277.792969 592.761719 1194.238281 638.996094 1084.832031 C 648.648438 1061.996094 657.90625 1038.800781 666.871094 1016.332031 C 675.164062 995.550781 683.210938 975.386719 691 956.960938 C 710.789062 910.132812 733.496094 860.402344 761.660156 858.996094 L 761.65625 858.996094 C 762.089844 858.972656 762.53125 858.960938 762.960938 858.960938 C 807.078125 858.960938 835.917969 986.207031 860.640625 1084.765625 L 860.417969 1083.992188 L 860.585938 1084.511719 L 860.585938 1084.507812 C 896.730469 1196.90625 927.578125 1283.835938 951.160156 1283.835938 C 951.171875 1283.835938 951.199219 1283.835938 951.210938 1283.835938 L 951.214844 1283.835938 C 975.425781 1283.609375 1009.933594 1194.5625 1050.277344 1081.609375 L 1049.949219 1082.671875 C 1077.210938 977.199219 1108.714844 843.640625 1154.445312 843.210938 L 1154.449219 843.207031 C 1154.550781 843.207031 1154.585938 843.207031 1154.695312 843.207031 C 1199.773438 843.207031 1239.167969 974.746094 1273.03125 1080.105469 L 1276.8125 1091.871094 L 1253.28125 1099.433594 L 1249.5 1087.667969 C 1209.980469 964.707031 1176 867.925781 1154.695312 867.925781 C 1154.65625 867.925781 1154.71875 867.925781 1154.671875 867.925781 L 1154.675781 867.925781 C 1133.957031 868.121094 1106.039062 964.445312 1073.878906 1088.859375 C 1073.789062 1089.21875 1073.679688 1089.574219 1073.554688 1089.921875 C 1038.859375 1187.0625 998.324219 1308.109375 951.449219 1308.554688 C 951.335938 1308.554688 951.273438 1308.554688 951.160156 1308.554688 C 903.902344 1308.554688 867.824219 1187.75 837.054688 1092.074219 L 837.054688 1092.070312 L 836.886719 1091.554688 C 836.804688 1091.300781 836.734375 1091.042969 836.667969 1090.78125 C 807.09375 972.886719 781.636719 883.679688 762.960938 883.679688 C 762.9375 883.679688 762.914062 883.679688 762.894531 883.679688 C 754.5 884.101562 737.769531 909.785156 713.765625 966.582031 C 706.09375 984.734375 698.144531 1004.65625 689.828125 1025.492188 C 680.875 1047.925781 671.527344 1071.351562 661.765625 1094.453125 C 620.0625 1193.128906 564.835938 1302.507812 515.890625 1302.507812 C 515.605469 1302.507812 515.335938 1302.507812 515.046875 1302.5 C 464.207031 1301.28125 437.953125 1184.996094 415.335938 1094.746094 L 415.480469 1095.265625 C 379.246094 973.425781 347.929688 877.90625 322.71875 877.90625 C 322.691406 877.90625 322.6875 877.90625 322.660156 877.90625 C 296.558594 878.152344 258.5 976.121094 214.503906 1098.050781 L 210.308594 1109.675781 L 187.058594 1101.285156 Z M 191.253906 1089.664062 " fill-opacity="1" fill-rule="nonzero"/></g></svg>