<svg xmlns="http://www.w3.org/2000/svg" xmlns:xlink="http://www.w3.org/1999/xlink" width="2000" zoomAndPan="magnify" viewBox="0 0 1500 1499.999933" height="2000" preserveAspectRatio="xMidYMid meet" version="1.0"><defs><clipPath id="279a1d42b6"><path d="M 153 527.425781 L 1347 527.425781 L 1347 627 L 153 627 Z M 153 527.425781 " clip-rule="nonzero"/></clipPath></defs><g clip-path="url(#279a1d42b6)"><path fill="#ffce01" d="M 454.25 527.425781 C 421.945312 527.425781 397.492188 549.996094 374.621094 570.359375 C 351.75 590.726562 330.449219 608.886719 306.523438 608.886719 C 282.601562 608.886719 245.84375 589.675781 216.464844 569.667969 C 187.089844 549.660156 164.574219 529.628906 164.574219 529.628906 L 153.042969 542.597656 C 153.042969 542.597656 176.277344 563.285156 206.703125 584.003906 C 237.125 604.726562 274.21875 626.25 306.523438 626.25 C 338.828125 626.25 363.28125 603.679688 386.152344 583.3125 C 409.023438 562.949219 430.328125 544.785156 454.25 544.785156 C 478.175781 544.785156 499.464844 562.949219 522.335938 583.3125 C 545.207031 603.679688 569.660156 626.25 601.964844 626.25 C 634.269531 626.25 658.722656 603.679688 681.59375 583.3125 C 704.464844 562.949219 725.753906 544.785156 749.679688 544.785156 C 773.601562 544.785156 794.890625 562.949219 817.765625 583.3125 C 840.636719 603.679688 865.085938 626.25 897.394531 626.25 C 929.699219 626.25 954.148438 603.679688 977.023438 583.3125 C 999.894531 562.949219 1021.195312 544.785156 1045.121094 544.785156 C 1069.203125 544.785156 1090.453125 562.28125 1113.292969 582.226562 C 1136.132812 602.167969 1160.367188 624.480469 1192.359375 626.234375 C 1259.875 629.941406 1306.15625 582.203125 1346.648438 542.289062 L 1334.460938 529.925781 C 1293.808594 570.003906 1252.195312 612.132812 1193.308594 608.898438 C 1169.15625 607.574219 1147.636719 589.160156 1124.710938 569.144531 C 1101.785156 549.125 1077.265625 527.425781 1045.121094 527.425781 C 1012.8125 527.425781 988.351562 549.996094 965.476562 570.359375 C 942.605469 590.726562 921.316406 608.886719 897.394531 608.886719 C 873.46875 608.886719 852.179688 590.726562 829.308594 570.359375 C 806.4375 549.996094 781.984375 527.425781 749.679688 527.425781 C 717.375 527.425781 692.921875 549.996094 670.050781 570.359375 C 647.179688 590.726562 625.890625 608.886719 601.964844 608.886719 C 578.039062 608.886719 556.75 590.726562 533.878906 570.359375 C 511.007812 549.996094 486.554688 527.425781 454.25 527.425781 Z M 454.25 527.425781 " fill-opacity="1" fill-rule="nonzero"/></g><path fill="#ffce01" d="M 454.25 653.667969 C 421.945312 653.667969 397.492188 676.222656 374.621094 696.589844 C 351.75 716.953125 330.449219 735.128906 306.523438 735.128906 C 282.601562 735.128906 245.84375 715.90625 216.464844 695.894531 C 187.089844 675.886719 164.574219 655.859375 164.574219 655.859375 L 153.042969 668.824219 C 153.042969 668.824219 176.277344 689.527344 206.703125 710.246094 C 237.125 730.96875 274.21875 752.476562 306.523438 752.476562 C 338.828125 752.476562 363.28125 729.917969 386.152344 709.554688 C 409.023438 689.191406 430.328125 671.027344 454.25 671.027344 C 478.175781 671.027344 499.464844 689.191406 522.335938 709.554688 C 545.207031 729.917969 569.660156 752.476562 601.964844 752.476562 C 634.269531 752.476562 658.722656 729.917969 681.59375 709.554688 C 704.464844 689.191406 725.753906 671.027344 749.679688 671.027344 C 773.601562 671.027344 794.890625 689.191406 817.765625 709.554688 C 840.636719 729.917969 865.085938 752.476562 897.394531 752.476562 C 929.699219 752.476562 954.148438 729.917969 977.023438 709.554688 C 999.894531 689.191406 1021.195312 671.027344 1045.121094 671.027344 C 1069.203125 671.027344 1090.453125 688.511719 1113.292969 708.453125 C 1136.132812 728.394531 1160.367188 750.707031 1192.359375 752.464844 C 1259.875 756.167969 1306.15625 708.445312 1346.648438 668.527344 L 1334.460938 656.164062 C 1293.808594 696.242188 1252.195312 738.375 1193.308594 735.140625 C 1169.15625 733.816406 1147.636719 715.402344 1124.710938 695.382812 C 1101.785156 675.367188 1077.265625 653.667969 1045.121094 653.667969 C 1012.8125 653.667969 988.351562 676.222656 965.476562 696.589844 C 942.605469 716.953125 921.316406 735.128906 897.394531 735.128906 C 873.46875 735.128906 852.179688 716.953125 829.308594 696.589844 C 806.4375 676.222656 781.984375 653.667969 749.679688 653.667969 C 717.375 653.667969 692.921875 676.222656 670.050781 696.589844 C 647.179688 716.953125 625.890625 735.128906 601.964844 735.128906 C 578.039062 735.128906 556.75 716.953125 533.878906 696.589844 C 511.007812 676.222656 486.554688 653.667969 454.25 653.667969 Z M 454.25 653.667969 " fill-opacity="1" fill-rule="nonzero"/><path fill="#ffce01" d="M 454.25 779.90625 C 421.945312 779.90625 397.492188 802.464844 374.621094 822.828125 C 351.75 843.195312 330.449219 861.355469 306.523438 861.355469 C 282.601562 861.355469 245.84375 842.144531 216.464844 822.136719 C 187.089844 802.128906 164.574219 782.097656 164.574219 782.097656 L 153.042969 795.0625 C 153.042969 795.0625 176.277344 815.765625 206.703125 836.488281 C 237.125 857.207031 274.21875 878.714844 306.523438 878.714844 C 338.828125 878.714844 363.28125 856.160156 386.152344 835.796875 C 409.023438 815.429688 430.328125 797.253906 454.25 797.253906 C 478.175781 797.253906 499.464844 815.429688 522.335938 835.796875 C 545.207031 856.160156 569.660156 878.714844 601.964844 878.714844 C 634.269531 878.714844 658.722656 856.160156 681.59375 835.796875 C 704.464844 815.429688 725.753906 797.253906 749.679688 797.253906 C 773.601562 797.253906 794.890625 815.429688 817.765625 835.796875 C 840.636719 856.160156 865.085938 878.714844 897.394531 878.714844 C 929.699219 878.714844 954.148438 856.160156 977.023438 835.796875 C 999.894531 815.429688 1021.195312 797.253906 1045.121094 797.253906 C 1069.203125 797.253906 1090.453125 814.75 1113.292969 834.691406 C 1136.132812 854.636719 1160.367188 876.949219 1192.359375 878.703125 C 1259.875 882.410156 1306.15625 834.671875 1346.648438 794.757812 L 1334.460938 782.40625 C 1293.808594 822.484375 1252.195312 864.601562 1193.308594 861.367188 C 1169.15625 860.042969 1147.636719 841.628906 1124.710938 821.613281 C 1101.785156 801.59375 1077.265625 779.90625 1045.121094 779.90625 C 1012.8125 779.90625 988.351562 802.464844 965.476562 822.828125 C 942.605469 843.195312 921.316406 861.355469 897.394531 861.355469 C 873.46875 861.355469 852.179688 843.195312 829.308594 822.828125 C 806.4375 802.464844 781.984375 779.90625 749.679688 779.90625 C 717.375 779.90625 692.921875 802.464844 670.050781 822.828125 C 647.179688 843.195312 625.890625 861.355469 601.964844 861.355469 C 578.039062 861.355469 556.75 843.195312 533.878906 822.828125 C 511.007812 802.464844 486.554688 779.90625 454.25 779.90625 Z M 454.25 779.90625 " fill-opacity="1" fill-rule="nonzero"/><path fill="#ffce01" d="M 454.25 906.136719 C 421.945312 906.136719 397.492188 928.703125 374.621094 949.070312 C 351.75 969.433594 330.449219 987.597656 306.523438 987.597656 C 282.601562 987.597656 245.84375 968.386719 216.464844 948.378906 C 187.089844 928.367188 164.574219 908.339844 164.574219 908.339844 L 153.042969 921.292969 C 153.042969 921.292969 176.277344 941.992188 206.703125 962.714844 C 237.125 983.433594 274.21875 1004.957031 306.523438 1004.957031 C 338.828125 1004.957031 363.28125 982.386719 386.152344 962.023438 C 409.023438 941.65625 430.328125 923.496094 454.25 923.496094 C 478.175781 923.496094 499.464844 941.65625 522.335938 962.023438 C 545.207031 982.386719 569.660156 1004.957031 601.964844 1004.957031 C 634.269531 1004.957031 658.722656 982.386719 681.59375 962.023438 C 704.464844 941.65625 725.753906 923.496094 749.679688 923.496094 C 773.601562 923.496094 794.890625 941.65625 817.765625 962.023438 C 840.636719 982.386719 865.085938 1004.957031 897.394531 1004.957031 C 929.699219 1004.957031 954.148438 982.386719 977.023438 962.023438 C 999.894531 941.65625 1021.195312 923.496094 1045.121094 923.496094 C 1069.203125 923.496094 1090.453125 940.980469 1113.292969 960.921875 C 1136.132812 980.863281 1160.367188 1003.1875 1192.359375 1004.945312 C 1259.875 1008.648438 1306.15625 960.914062 1346.648438 920.996094 L 1334.460938 908.632812 C 1293.808594 948.710938 1252.195312 990.839844 1193.308594 987.609375 C 1169.15625 986.285156 1147.636719 967.867188 1124.710938 947.851562 C 1101.785156 927.835938 1077.265625 906.136719 1045.121094 906.136719 C 1012.8125 906.136719 988.351562 928.703125 965.476562 949.070312 C 942.605469 969.433594 921.316406 987.597656 897.394531 987.597656 C 873.46875 987.597656 852.179688 969.433594 829.308594 949.070312 C 806.4375 928.703125 781.984375 906.136719 749.679688 906.136719 C 717.375 906.136719 692.921875 928.703125 670.050781 949.070312 C 647.179688 969.433594 625.890625 987.597656 601.964844 987.597656 C 578.039062 987.597656 556.75 969.433594 533.878906 949.070312 C 511.007812 928.703125 486.554688 906.136719 454.25 906.136719 Z M 454.25 906.136719 " fill-opacity="1" fill-rule="nonzero"/></svg>