<svg xmlns="http://www.w3.org/2000/svg" xmlns:xlink="http://www.w3.org/1999/xlink" width="2000" zoomAndPan="magnify" viewBox="0 0 1500 1499.999933" height="2000" preserveAspectRatio="xMidYMid meet" version="1.0"><defs><clipPath id="9613056a49"><path d="M 236.277344 229.113281 L 1260 229.113281 L 1260 1268 L 236.277344 1268 Z M 236.277344 229.113281 " clip-rule="nonzero"/></clipPath></defs><g clip-path="url(#9613056a49)"><path fill="#973878" d="M 1248.746094 252.671875 C 1233.867188 237.824219 1209.765625 237.851562 1194.914062 252.730469 L 757.335938 691.421875 L 306.847656 240.136719 C 299.964844 233.226562 290.425781 228.941406 279.890625 228.941406 C 258.902344 228.941406 241.851562 245.992188 241.851562 267.007812 C 241.851562 277.089844 245.851562 286.769531 252.960938 293.878906 L 703.589844 745.28125 L 247.621094 1202.394531 C 240.710938 1209.277344 236.425781 1218.785156 236.425781 1229.324219 C 236.425781 1244.714844 245.707031 1258.59375 259.929688 1264.476562 C 274.148438 1270.359375 290.542969 1267.105469 301.421875 1256.195312 L 757.335938 799.140625 L 1194.773438 1237.347656 C 1209.621094 1252.199219 1233.722656 1252.226562 1248.601562 1237.378906 C 1263.453125 1222.527344 1263.480469 1198.453125 1248.632812 1183.574219 L 811.078125 745.253906 L 1248.800781 306.472656 C 1263.652344 291.597656 1263.625 267.523438 1248.746094 252.671875 " fill-opacity="1" fill-rule="nonzero"/></g></svg>